<svg width="386" height="156" viewBox="0 0 386 156" fill="none" xmlns="http://www.w3.org/2000/svg">
<g opacity="0.6">
<mask id="path-1-inside-1_61_67046" fill="white">
<path fill-rule="evenodd" clip-rule="evenodd" d="M386 0H0V69.1826L2.895 71.8957V104.452L0 107.165V156H386V107.165L383.105 104.452V71.8957L386 69.1826V0Z"/>
</mask>
<path fill-rule="evenodd" clip-rule="evenodd" d="M386 0H0V69.1826L2.895 71.8957V104.452L0 107.165V156H386V107.165L383.105 104.452V71.8957L386 69.1826V0Z" fill="url(#paint0_radial_61_67046)"/>
<path d="M0 0V-1H-1V0H0ZM386 0H387V-1H386V0ZM0 69.1826H-1V69.616L-0.683804 69.9123L0 69.1826ZM2.895 71.8957H3.895V71.4623L3.5788 71.166L2.895 71.8957ZM2.895 104.452L3.5788 105.182L3.895 104.886V104.452H2.895ZM0 107.165L-0.683804 106.436L-1 106.732V107.165H0ZM0 156H-1V157H0V156ZM386 156V157H387V156H386ZM386 107.165H387V106.732L386.684 106.436L386 107.165ZM383.105 104.452H382.105V104.886L382.421 105.182L383.105 104.452ZM383.105 71.8957L382.421 71.166L382.105 71.4623V71.8957H383.105ZM386 69.1826L386.684 69.9123L387 69.616V69.1826H386ZM0 1H386V-1H0V1ZM1 69.1826V0H-1V69.1826H1ZM3.5788 71.166L0.683804 68.4529L-0.683804 69.9123L2.2112 72.6253L3.5788 71.166ZM3.895 104.452V71.8957H1.895V104.452H3.895ZM0.683804 107.895L3.5788 105.182L2.2112 103.723L-0.683804 106.436L0.683804 107.895ZM1 156V107.165H-1V156H1ZM386 155H0V157H386V155ZM385 107.165V156H387V107.165H385ZM386.684 106.436L383.789 103.723L382.421 105.182L385.316 107.895L386.684 106.436ZM384.105 104.452V71.8957H382.105V104.452H384.105ZM383.789 72.6253L386.684 69.9123L385.316 68.4529L382.421 71.166L383.789 72.6253ZM385 0V69.1826H387V0H385Z" fill="url(#paint1_linear_61_67046)" mask="url(#path-1-inside-1_61_67046)"/>
<path d="M0 0V-1H-1V0H0ZM386 0H387V-1H386V0ZM0 69.1826H-1V69.616L-0.683804 69.9123L0 69.1826ZM2.895 71.8957H3.895V71.4623L3.5788 71.166L2.895 71.8957ZM2.895 104.452L3.5788 105.182L3.895 104.886V104.452H2.895ZM0 107.165L-0.683804 106.436L-1 106.732V107.165H0ZM0 156H-1V157H0V156ZM386 156V157H387V156H386ZM386 107.165H387V106.732L386.684 106.436L386 107.165ZM383.105 104.452H382.105V104.886L382.421 105.182L383.105 104.452ZM383.105 71.8957L382.421 71.166L382.105 71.4623V71.8957H383.105ZM386 69.1826L386.684 69.9123L387 69.616V69.1826H386ZM0 1H386V-1H0V1ZM1 69.1826V0H-1V69.1826H1ZM3.5788 71.166L0.683804 68.4529L-0.683804 69.9123L2.2112 72.6253L3.5788 71.166ZM3.895 104.452V71.8957H1.895V104.452H3.895ZM0.683804 107.895L3.5788 105.182L2.2112 103.723L-0.683804 106.436L0.683804 107.895ZM1 156V107.165H-1V156H1ZM386 155H0V157H386V155ZM385 107.165V156H387V107.165H385ZM386.684 106.436L383.789 103.723L382.421 105.182L385.316 107.895L386.684 106.436ZM384.105 104.452V71.8957H382.105V104.452H384.105ZM383.789 72.6253L386.684 69.9123L385.316 68.4529L382.421 71.166L383.789 72.6253ZM385 0V69.1826H387V0H385Z" fill="url(#paint2_diamond_61_67046)" mask="url(#path-1-inside-1_61_67046)"/>
</g>
<path fill-rule="evenodd" clip-rule="evenodd" d="M0 73.2522L1 73.2522L1 94.2522L9.17939e-07 94.2522L0 73.2522Z" fill="url(#paint3_linear_61_67046)"/>
<path fill-rule="evenodd" clip-rule="evenodd" d="M0 96.2522L1 96.2522L1 97.2522L4.37114e-08 97.2522L0 96.2522Z" fill="#30DAFF"/>
<path fill-rule="evenodd" clip-rule="evenodd" d="M0 99.2522L1 99.2522L1 100.252L4.37114e-08 100.252L0 99.2522Z" fill="#30DAFF"/>
<path fill-rule="evenodd" clip-rule="evenodd" d="M0 102.252L1 102.252L1 103.252L4.37114e-08 103.252L0 102.252Z" fill="#30DAFF"/>
<path fill-rule="evenodd" clip-rule="evenodd" d="M385.035 73.2522L386.035 73.2522L386.035 94.2522L385.035 94.2522L385.035 73.2522Z" fill="url(#paint4_linear_61_67046)"/>
<path fill-rule="evenodd" clip-rule="evenodd" d="M385.035 96.2522L386.035 96.2522L386.035 97.2522L385.035 97.2522L385.035 96.2522Z" fill="#30DAFF"/>
<path fill-rule="evenodd" clip-rule="evenodd" d="M385.035 99.2522L386.035 99.2522L386.035 100.252L385.035 100.252L385.035 99.2522Z" fill="#30DAFF"/>
<path fill-rule="evenodd" clip-rule="evenodd" d="M385.035 102.252L386.035 102.252L386.035 103.252L385.035 103.252L385.035 102.252Z" fill="#30DAFF"/>
<path d="M3 148L8 153H3V148Z" fill="#34636E"/>
<path d="M383 148L378 153H383V148Z" fill="#34636E"/>
<defs>
<radialGradient id="paint0_radial_61_67046" cx="0" cy="0" r="1" gradientUnits="userSpaceOnUse" gradientTransform="translate(193 77.9995) rotate(-90) scale(78 193)">
<stop stop-color="#1A394D" stop-opacity="0"/>
<stop offset="1" stop-color="#1A394D" stop-opacity="0.4"/>
</radialGradient>
<linearGradient id="paint1_linear_61_67046" x1="193" y1="156" x2="193" y2="-0.000492811" gradientUnits="userSpaceOnUse">
<stop stop-color="#4FC5DD"/>
<stop offset="1" stop-color="#05839D" stop-opacity="0"/>
</linearGradient>
<radialGradient id="paint2_diamond_61_67046" cx="0" cy="0" r="1" gradientUnits="userSpaceOnUse" gradientTransform="translate(193 156) rotate(-90) scale(90.887 237.653)">
<stop offset="0.511394" stop-color="#0097B8"/>
<stop offset="0.812834" stop-color="#A2F0FF"/>
<stop offset="0.835711" stop-color="#91F8FF" stop-opacity="0"/>
</radialGradient>
<linearGradient id="paint3_linear_61_67046" x1="0.5" y1="94.2522" x2="0.499999" y2="73.2522" gradientUnits="userSpaceOnUse">
<stop stop-color="#30DAFF" stop-opacity="0.87"/>
<stop offset="0.343003" stop-color="#30DCFF" stop-opacity="0.44"/>
<stop offset="1" stop-color="#267EE5" stop-opacity="0"/>
</linearGradient>
<linearGradient id="paint4_linear_61_67046" x1="385.535" y1="94.2522" x2="385.535" y2="73.2522" gradientUnits="userSpaceOnUse">
<stop stop-color="#30DAFF" stop-opacity="0.87"/>
<stop offset="0.343003" stop-color="#30DCFF" stop-opacity="0.44"/>
<stop offset="1" stop-color="#267EE5" stop-opacity="0"/>
</linearGradient>
</defs>
</svg>
