<svg width="120" height="1080" viewBox="0 0 120 1080" fill="none" xmlns="http://www.w3.org/2000/svg">
<path d="M116 1051.17L115.998 1053.1" stroke="#CBF2FA" stroke-width="2"/>
<path opacity="0.5" d="M115.998 642.621L115.998 1052.14" stroke="url(#paint0_linear_34_73210)" stroke-width="2"/>
<path opacity="0.5" d="M116 27.8652L116 441.033" stroke="url(#paint1_linear_34_73210)" stroke-width="2"/>
<path d="M116 26.9043L116 28.8224" stroke="#CBF2FA" stroke-width="2"/>
<path d="M116 427.291L116 632.532" stroke="#CBF2FA" stroke-width="2" stroke-dasharray="2 5"/>
<path d="M116 447.469L116 652.71" stroke="url(#paint2_linear_34_73210)" stroke-width="2"/>
<g opacity="0.4" clip-path="url(#clip0_34_73210)">
<g style="mix-blend-mode:plus-lighter" opacity="0.3">
<ellipse cx="214" cy="41.6667" rx="214" ry="41.6667" transform="matrix(0 -1 -1 0 160.334 754)" fill="url(#paint3_radial_34_73210)"/>
</g>
<g style="mix-blend-mode:plus-lighter" opacity="0.1">
<ellipse cx="119.229" cy="31.6667" rx="119.229" ry="31.6667" transform="matrix(0 -1 -1 0 150.334 659.229)" fill="url(#paint4_radial_34_73210)"/>
</g>
<g style="mix-blend-mode:plus-lighter" opacity="0.2">
<ellipse cx="85.6" cy="35" rx="85.6" ry="35" transform="matrix(0 -1 -1 0 153.666 625.6)" fill="url(#paint5_radial_34_73210)"/>
</g>
<g style="mix-blend-mode:plus-lighter" opacity="0.1">
<ellipse cx="45.8571" cy="15" rx="45.8571" ry="15" transform="matrix(0 -1 -1 0 130.334 585.857)" fill="url(#paint6_radial_34_73210)"/>
</g>
<g style="mix-blend-mode:plus-lighter" opacity="0.3">
<ellipse cx="39.7429" cy="13.3333" rx="39.7429" ry="13.3333" transform="matrix(0 -1 -1 0 130.334 579.743)" fill="url(#paint7_radial_34_73210)"/>
</g>
<g style="mix-blend-mode:plus-lighter" opacity="0.4">
<ellipse cx="18.3428" cy="6.66667" rx="18.3428" ry="6.66667" transform="matrix(0 -1 -1 0 123.666 558.343)" fill="url(#paint8_radial_34_73210)"/>
</g>
</g>
<defs>
<linearGradient id="paint0_linear_34_73210" x1="115.498" y1="642.621" x2="115.498" y2="1052.14" gradientUnits="userSpaceOnUse">
<stop stop-color="#CBF2FA" stop-opacity="0"/>
<stop offset="1" stop-color="#CBF2FA"/>
</linearGradient>
<linearGradient id="paint1_linear_34_73210" x1="115.5" y1="27.8652" x2="115.5" y2="441.033" gradientUnits="userSpaceOnUse">
<stop stop-color="#CBF2FA"/>
<stop offset="1" stop-color="#CBF2FA" stop-opacity="0"/>
</linearGradient>
<linearGradient id="paint2_linear_34_73210" x1="115.5" y1="447.469" x2="115.5" y2="652.71" gradientUnits="userSpaceOnUse">
<stop stop-color="#CBF2FA"/>
<stop offset="0.430018" stop-color="#CBF2FA" stop-opacity="0"/>
<stop offset="0.430018" stop-color="#CBF2FA"/>
<stop offset="0.508163" stop-color="#CBF2FA"/>
<stop offset="0.508163" stop-color="#CBF2FA" stop-opacity="0"/>
<stop offset="1" stop-color="#CBF2FA"/>
</linearGradient>
<radialGradient id="paint3_radial_34_73210" cx="0" cy="0" r="1" gradientUnits="userSpaceOnUse" gradientTransform="translate(211.881 41.6667) rotate(90) scale(41.6667 211.881)">
<stop stop-color="#B7EEFF"/>
<stop offset="0.302515" stop-color="#9BE2FF" stop-opacity="0.76"/>
<stop offset="1" stop-color="#6BD4FF" stop-opacity="0"/>
</radialGradient>
<radialGradient id="paint4_radial_34_73210" cx="0" cy="0" r="1" gradientUnits="userSpaceOnUse" gradientTransform="translate(118.048 31.6667) rotate(90) scale(31.6667 118.048)">
<stop stop-color="#B7EEFF"/>
<stop offset="0.302515" stop-color="#9BE2FF" stop-opacity="0.76"/>
<stop offset="1" stop-color="#6BD4FF" stop-opacity="0"/>
</radialGradient>
<radialGradient id="paint5_radial_34_73210" cx="0" cy="0" r="1" gradientUnits="userSpaceOnUse" gradientTransform="translate(84.7525 35) rotate(90) scale(35 84.7525)">
<stop stop-color="#B7EEFF"/>
<stop offset="1" stop-color="#6BD4FF" stop-opacity="0"/>
</radialGradient>
<radialGradient id="paint6_radial_34_73210" cx="0" cy="0" r="1" gradientUnits="userSpaceOnUse" gradientTransform="translate(45.4031 15) rotate(90) scale(15 45.4031)">
<stop stop-color="#B7EEFF"/>
<stop offset="0.302515" stop-color="#9BE2FF" stop-opacity="0.76"/>
<stop offset="1" stop-color="#6BD4FF" stop-opacity="0"/>
</radialGradient>
<radialGradient id="paint7_radial_34_73210" cx="0" cy="0" r="1" gradientUnits="userSpaceOnUse" gradientTransform="translate(39.3494 13.3333) rotate(90) scale(13.3333 39.3494)">
<stop stop-color="#B7EEFF"/>
<stop offset="0.302515" stop-color="#9BE2FF" stop-opacity="0.76"/>
<stop offset="1" stop-color="#6BD4FF" stop-opacity="0"/>
</radialGradient>
<radialGradient id="paint8_radial_34_73210" cx="0" cy="0" r="1" gradientUnits="userSpaceOnUse" gradientTransform="translate(18.1612 6.66667) rotate(90) scale(6.66667 18.1612)">
<stop stop-color="#B7EEFF"/>
<stop offset="0.302515" stop-color="#9BE2FF" stop-opacity="0.76"/>
<stop offset="1" stop-color="#6BD4FF" stop-opacity="0"/>
</radialGradient>
<clipPath id="clip0_34_73210">
<rect width="428" height="40" fill="white" transform="matrix(0 -1 1 0 77 754)"/>
</clipPath>
</defs>
</svg>
