<svg xmlns="http://www.w3.org/2000/svg" xmlns:xlink="http://www.w3.org/1999/xlink" width="92" height="92" viewBox="0 0 92 92" fill="none">
<rect x="0" y="0" width="2.999999999999997" height="2.999999999999998"   fill="#2E6C99" >
</rect>
<rect x="89" y="0" width="3" height="2.999999999999998"   fill="#2E6C99" >
</rect>
<rect x="0" y="89" width="2.999999999999997" height="2.999999999999986"   fill="#2E6C99" >
</rect>
<rect x="89" y="89" width="3" height="2.999999999999986"   fill="#2E6C99" >
</rect>
<path    stroke="rgba(78, 112, 123, 1)" stroke-width="0.5"    d="M6.98975 46.4434L85.0103 46.4434">
</path>
<path    stroke="rgba(78, 112, 123, 1)" stroke-width="0.5"    d="M46 7.43311L46 85.4536">
</path>
<path fill-rule="evenodd"  fill="rgba(38, 90, 128, 0.7)"  d="M85.0104 46.0001C85.0104 24.4553 67.5449 6.98975 46.0001 6.98975C24.4553 6.98975 6.98975 24.4553 6.98975 46.0001C6.98975 67.5449 24.4553 85.0104 46.0001 85.0104C67.5449 85.0104 85.0104 67.5449 85.0104 46.0001ZM23.3653 23.3653Q32.741 13.9897 46.0001 13.9897C63.6789 13.9897 78.0104 28.3213 78.0104 46.0001C78.0104 63.6789 63.6789 78.0104 46.0001 78.0104C28.3213 78.0104 13.9897 63.6789 13.9897 46.0001Q13.9897 32.741 23.3653 23.3653Z">
</path>
<path fill-rule="evenodd"  fill="rgba(207, 224, 230, 1)"  d="M85.0104 46.0001C85.0104 24.4553 67.5449 6.98975 46.0001 6.98975C24.4553 6.98975 6.98975 24.4553 6.98975 46.0001C6.98975 67.5449 24.4553 85.0104 46.0001 85.0104C67.5449 85.0104 85.0104 67.5449 85.0104 46.0001ZM18.7692 18.7692Q30.0486 7.48975 46.0001 7.48975C67.2687 7.48975 84.5104 24.7314 84.5104 46.0001C84.5104 67.2687 67.2687 84.5104 46.0001 84.5104C24.7314 84.5104 7.48975 67.2687 7.48975 46.0001Q7.48975 30.0486 18.7692 18.7692Z">
</path>
<g opacity="0.45">
<path fill-rule="evenodd"  fill="rgba(16, 35, 41, 1)"  d="M76.1444 46C76.1444 29.3518 62.6483 15.8557 46 15.8557C29.3518 15.8557 15.8557 29.3518 15.8557 46C15.8557 62.6483 29.3518 76.1444 46 76.1444C62.6483 76.1444 76.1444 62.6483 76.1444 46ZM43.8557 46Q43.8557 43.8557 46 43.8557C47.1843 43.8557 48.1444 44.8158 48.1444 46C48.1444 47.1843 47.1843 48.1444 46 48.1444C44.8158 48.1444 43.8557 47.1843 43.8557 46Z">
</path>
</g>
<g opacity="0.83">
<path fill-rule="evenodd"  fill="rgba(89, 112, 128, 1)"  d="M3.0211 47.3601C3.00707 46.9085 3 46.4551 3 46C3 26.2987 16.2494 9.69203 34.3238 4.6042L34.5948 5.5668Q21.203 9.33649 12.6769 20.4314Q4 31.7225 4 46Q4 46.6655 4.02062 47.3291L3.0211 47.3601ZM46.9079 88.9906C46.606 88.9969 46.3034 89 46 89C26.1424 89 9.42867 75.5395 4.48526 57.245L5.45064 56.9841Q9.112 70.5341 20.2631 79.1931Q31.6046 88 46 88Q46.444 88 46.8872 87.9908L46.9079 88.9906ZM88.9977 45.5455C88.9992 45.6968 89 45.8483 89 46C89 66.0139 75.3268 82.8343 56.812 87.6293L56.5613 86.6612Q70.2692 83.1111 79.0623 71.9044Q88 60.5135 88 46.0052L87.9977 45.5506L88.9977 45.5455ZM87.7394 35.6227L86.7688 35.8632Q83.3329 21.9975 72.0714 13.0693Q60.6317 4 46 4Q45.1134 4 44.2302 4.0366L44.1888 3.03746C44.7894 3.01257 45.3932 3 46 3C66.1703 3 83.0969 16.8877 87.7394 35.6227Z">
</path>
</g>
<g opacity="0.5">
<path fill-rule="evenodd"  fill="rgba(71, 89, 102, 1)"  d="M63.2886 46.0001C63.2886 36.4518 55.5482 28.7114 46 28.7114C36.4517 28.7114 28.7113 36.4518 28.7113 46.0001C28.7113 55.5483 36.4517 63.2887 46 63.2887C55.5482 63.2887 63.2886 55.5483 63.2886 46.0001ZM34.1286 34.1287Q39.0459 29.2114 46 29.2114C55.2721 29.2114 62.7886 36.728 62.7886 46.0001C62.7886 55.2722 55.2721 62.7887 46 62.7887C36.7278 62.7887 29.2113 55.2722 29.2113 46.0001Q29.2113 39.046 34.1286 34.1287Z">
</path>
</g>
<path fill-rule="evenodd"  fill="rgba(71, 89, 102, 1)"  d="M76.1444 46C76.1444 29.3518 62.6483 15.8557 46 15.8557C29.3518 15.8557 15.8557 29.3518 15.8557 46C15.8557 62.6483 29.3518 76.1444 46 76.1444C62.6483 76.1444 76.1444 62.6483 76.1444 46ZM25.0383 25.0383Q33.721 16.3557 46 16.3557C62.3722 16.3557 75.6444 29.6279 75.6444 46C75.6444 62.3722 62.3722 75.6444 46 75.6444C29.6279 75.6444 16.3557 62.3722 16.3557 46Q16.3557 33.7209 25.0383 25.0383Z">
</path>
<g opacity="0.6">
<path fill-rule="evenodd"  fill="rgba(58, 91, 115, 1)"  d="M60.1856 46C60.1856 38.1655 53.8345 31.8145 46 31.8145C38.1655 31.8145 31.8145 38.1655 31.8145 46C31.8145 53.8345 38.1655 60.1856 46 60.1856C53.8345 60.1856 60.1856 53.8345 60.1856 46ZM40.9191 40.9191Q43.0237 38.8145 46 38.8145C49.9685 38.8145 53.1856 42.0315 53.1856 46C53.1856 49.9685 49.9685 53.1856 46 53.1856C42.0315 53.1856 38.8145 49.9685 38.8145 46Q38.8145 43.0237 40.9191 40.9191Z">
</path>
</g>
<g filter="url(#filter_1_30253)">
<ellipse cx="46" cy="45.99999999999999" rx="2.9999999999999964" ry="2.999999999999993"   fill="#B3E5FF" >
</ellipse>
</g>
<path    stroke="rgba(23, 143, 230, 1)" stroke-width="1"    d="M46.0566 14.6675L46.0566 17.0439">
</path>
<path    stroke="rgba(23, 143, 230, 1)" stroke-width="1"    d="M46.0566 74.9561L46.0566 77.3325">
</path>
<path    stroke="rgba(23, 143, 230, 1)" stroke-width="1"    d="M77.3893 46L75.0128 46">
</path>
<path    stroke="rgba(23, 143, 230, 1)" stroke-width="1"    d="M17.1006 46L14.7242 46">
</path>
<defs>
<filter id="filter_1_30253" x="25" y="25" width="28" height="28" filterUnits="userSpaceOnUse" color-interpolation-filters="sRGB">
<feFlood flood-opacity="0" result="feFloodId_1_30253"/>
<feColorMatrix in="SourceAlpha" type="matrix" values="0 0 0 0 0 0 0 0 0 0 0 0 0 0 0 0 0 0 127 0" result="hardAlpha_1_30253"/>
<feMorphology radius="2" operator="dilate" in="SourceAlpha"/>
<feOffset dx="0" dy="0"/>
<feGaussianBlur stdDeviation="8"/>
<feComposite in2="hardAlpha_1_30253" operator="out"/>
<feColorMatrix type="matrix" values="0 0 0 0 0.09019607843137255 0 0 0 0 0.5607843137254902 0 0 0 0 0.9019607843137255 0 0 0 1 0"/>
<feBlend mode="normal" in2="feFloodId_1_30253" result="dropShadow_1_1_30253"/>
<feColorMatrix in="SourceAlpha" type="matrix" values="0 0 0 0 0 0 0 0 0 0 0 0 0 0 0 0 0 0 127 0" result="hardAlpha_1_30253"/>
<feMorphology radius="1" operator="dilate" in="SourceAlpha"/>
<feOffset dx="0" dy="0"/>
<feGaussianBlur stdDeviation="1.5"/>
<feComposite in2="hardAlpha_1_30253" operator="out"/>
<feColorMatrix type="matrix" values="0 0 0 0 0 0 0 0 0 0.7568627450980392 0 0 0 0 1 0 0 0 1 0"/>
<feBlend mode="normal" in2="feFloodId_1_30253" result="dropShadow_1_1_30253"/>
<feBlend mode="normal" in="SourceGraphic" in2="dropShadow_1_1_30253" result="shape_1_30253"/>
</filter>
</defs>
</svg>
