<svg xmlns="http://www.w3.org/2000/svg" xmlns:xlink="http://www.w3.org/1999/xlink" width="172" height="154" viewBox="0 0 172 154" fill="none">
<path fill-rule="evenodd"  fill="url(#linear_border_16_3_0)"  d="M86 144.866C133.496 144.866 172 114.675 172 77.4331C172 40.1908 133.496 10 86 10C38.5035 10 0 40.1908 0 77.4331C0 114.675 38.5035 144.866 86 144.866ZM146.194 30.5376Q171 49.9882 171 77.4331Q171 104.878 146.194 124.328Q121.277 143.866 86 143.866Q50.7231 143.866 25.8059 124.328Q1 104.878 1.00001 77.4331Q1 49.988 25.8059 30.5376Q50.723 11 86 11Q121.277 11 146.194 30.5376Z">
</path>
<ellipse  cx="85.89947509765625" cy="77" rx="76.89947509765625" ry="77"    fill="url(#linear_fill_16_4_0)" >
</ellipse>
<path fill-rule="evenodd"  fill="url(#linear_border_16_4_0)"  d="M85.8995 154C128.37 154 162.799 119.526 162.799 77C162.799 34.4741 128.37 0 85.8995 0C43.4291 0 9 34.4741 9 77C9 119.526 43.4291 154 85.8995 154ZM85.8995 1.5C127.597 1.5 161.299 35.3025 161.299 77C161.299 118.642 127.541 152.5 85.8995 152.5C44.202 152.5 10.5 118.698 10.5 77C10.5 35.3581 44.2575 1.5 85.8995 1.5Z">
</path>
<path fill-rule="evenodd"  fill="url(#linear_border_16_5_0)"  d="M80.7047 10.207C81.3731 10.1561 82.0442 10.1145 82.7178 10.0823L82.7656 11.0811Q81.7713 11.1287 80.7806 11.2041L80.7047 10.207ZM76.7273 10.6224C77.3845 10.535 78.0446 10.4566 78.7076 10.3873L78.8115 11.3819Q77.8329 11.4842 76.8591 11.6137L76.7273 10.6224ZM72.8204 11.2539C73.4653 11.131 74.1134 11.0168 74.7646 10.9115L74.9242 11.8987Q73.9631 12.0541 73.0076 12.2362L72.8204 11.2539ZM68.8862 12.1211C69.5379 11.9577 70.1933 11.8034 70.8523 11.6581L71.0675 12.6347Q70.0948 12.849 69.1294 13.0911L68.8862 12.1211ZM65.0217 13.2088C65.6579 13.0098 66.2982 12.8196 66.9423 12.6383L67.2133 13.6009Q66.2623 13.8686 65.3201 14.1632L65.0217 13.2088ZM61.2535 14.5061C61.8731 14.2728 62.497 14.0479 63.1251 13.8316L63.4507 14.7772Q62.5232 15.0965 61.6059 15.4419L61.2535 14.5061ZM57.5552 16.0211C58.168 15.7493 58.7855 15.4859 59.4078 15.2312L59.7866 16.1567Q58.8678 16.5328 57.9606 16.9352L57.5552 16.0211ZM53.9305 17.7555C54.5246 17.4499 55.1238 17.1524 55.728 16.8633L56.1596 17.7653Q55.2673 18.1923 54.388 18.6447L53.9305 17.7555ZM50.4287 19.6864C51.0017 19.3487 51.5801 19.0188 52.1638 18.6969L52.6467 19.5726Q51.7845 20.048 50.9365 20.5479L50.4287 19.6864ZM47.0521 21.8098C47.6044 21.44 48.1625 21.0777 48.7262 20.7232L49.2585 21.5698Q48.4257 22.0935 47.6085 22.6407L47.0521 21.8098ZM43.7815 24.14C44.3144 23.7366 44.8535 23.3406 45.3986 22.9522L45.9789 23.7666Q45.1733 24.3405 44.3851 24.9373L43.7815 24.14ZM40.6599 26.6485C41.1673 26.216 41.6813 25.7906 42.2016 25.3725L42.828 26.1519Q42.0589 26.77 41.3087 27.4095L40.6599 26.6485ZM37.6954 29.3277C38.176 28.8674 38.6634 28.4138 39.1576 27.9672L39.828 28.7092Q39.0976 29.3693 38.3871 30.0499L37.6954 29.3277ZM34.8845 32.1818C35.339 31.6925 35.8008 31.2097 36.2697 30.7336L36.9822 31.4353Q36.2889 32.1392 35.6172 32.8624L34.8845 32.1818ZM32.2459 35.1948C32.6707 34.68 33.1031 34.1714 33.5429 33.6692L34.2952 34.328Q33.6448 35.0707 33.0172 35.8313L32.2459 35.1948ZM29.7896 38.3569C30.1834 37.8179 30.585 37.2848 30.9945 36.7577L31.7842 37.3712Q31.1787 38.1506 30.5971 38.9468L29.7896 38.3569ZM27.5271 41.6549C27.8875 41.0945 28.2561 40.5398 28.6328 39.9907L29.4574 40.5564Q28.9003 41.3685 28.3681 42.1959L27.5271 41.6549ZM25.4644 45.0819C25.7913 44.5001 26.1268 43.9235 26.4706 43.3523L27.3274 43.868Q26.8187 44.713 26.3362 45.5718L25.4644 45.0819ZM23.6068 48.6341C23.8989 48.0321 24.1998 47.4349 24.5095 46.8429L25.3956 47.3063Q24.9375 48.1822 24.5065 49.0706L23.6068 48.6341ZM21.9682 52.289C22.2223 51.673 22.4854 51.0615 22.7574 50.4547L23.6699 50.8637Q23.2675 51.7615 22.8927 52.6702L21.9682 52.289ZM20.5607 56.0176C20.777 55.3877 21.0025 54.7619 21.2371 54.1404L22.1727 54.4936Q21.8255 55.4132 21.5066 56.3423L20.5607 56.0176ZM19.3759 59.8458C19.5544 59.1999 19.7425 58.5578 19.94 57.9197L20.8953 58.2155Q20.603 59.1597 20.3398 60.1122L19.3759 59.8458ZM18.4214 63.766C18.5608 63.1054 18.7102 62.4483 18.8694 61.7949L19.841 62.0315Q19.6054 62.9986 19.3998 63.9726L18.4214 63.766ZM17.7209 67.661C17.8185 67.0059 17.9257 66.3539 18.0424 65.705L19.0266 65.882Q18.8538 66.8425 18.71 67.8083L17.7209 67.661ZM17.2528 71.6272C17.3111 70.9604 17.3794 70.2964 17.4574 69.6354L18.4505 69.7526Q18.3349 70.7314 18.249 71.7143L17.2528 71.6272ZM17.0235 75.6597C17.0414 74.9824 17.0696 74.3077 17.1078 73.6355L18.1062 73.6924Q18.0495 74.6877 18.0231 75.6862L17.0235 75.6597ZM17.0395 79.7338C17.0163 79.0578 17.0032 78.3794 17.0005 77.6985L18.0005 77.6946Q18.0045 78.6984 18.0389 79.6994L17.0395 79.7338ZM17.3002 83.7581C17.2368 83.0928 17.1832 82.4247 17.1397 81.7539L18.1376 81.6892Q18.2017 82.6782 18.2957 83.6631L17.3002 83.7581ZM17.7989 87.715C17.6964 87.0615 17.6034 86.4049 17.5203 85.7454L18.5124 85.6203Q18.635 86.5927 18.7868 87.56L17.7989 87.715ZM18.5321 91.6143C18.3903 90.9683 18.2579 90.3189 18.1353 89.6662L19.1181 89.4815Q19.2989 90.4437 19.5088 91.3999L18.5321 91.6143ZM19.517 95.523C19.3335 94.8791 19.1596 94.2313 18.9954 93.5798L19.9651 93.3354Q20.2072 94.2961 20.4787 95.2489L19.517 95.523ZM20.7311 99.3386C20.5101 98.7108 20.2983 98.0789 20.0959 97.4429L21.0488 97.1396Q21.3473 98.0776 21.6744 99.0065L20.7311 99.3386ZM22.167 103.054C21.9096 102.443 21.6612 101.828 21.4218 101.209L22.3546 100.849Q22.7077 101.762 23.0884 102.665L22.167 103.054ZM23.8362 106.7C23.5396 106.101 23.2517 105.496 22.9729 104.887L23.8821 104.471Q24.2937 105.37 24.7325 106.257L23.8362 106.7ZM25.7209 110.237C25.3896 109.658 25.0668 109.073 24.7526 108.484L25.6351 108.013Q26.0988 108.883 26.5889 109.74L25.7209 110.237ZM27.8097 113.647C27.445 113.089 27.0885 112.526 26.7403 111.958L27.593 111.436Q28.1071 112.275 28.6465 113.099L27.8097 113.647ZM30.0981 116.928C29.7003 116.392 29.3103 115.85 28.9284 115.303L29.7486 114.731Q30.3127 115.54 30.9011 116.332L30.0981 116.928ZM32.5785 120.071C32.1498 119.56 31.7286 119.042 31.3152 118.518L32.1002 117.898Q32.711 118.672 33.345 119.429L32.5785 120.071ZM35.2403 123.064C34.782 122.578 34.3309 122.086 33.8872 121.587L34.6345 120.923Q35.2902 121.66 35.9678 122.378L35.2403 123.064ZM38.0714 125.896C37.5862 125.438 37.1079 124.973 36.6366 124.502L37.3438 123.795Q38.0403 124.492 38.7576 125.168L38.0714 125.896ZM41.0568 128.553C40.546 128.124 40.0417 127.688 39.5441 127.246L40.209 126.499Q40.945 127.154 41.6997 127.787L41.0568 128.553ZM44.1981 131.039C43.662 130.639 43.132 130.232 42.6084 129.818L43.229 129.034Q44.0035 129.647 44.7957 130.237L44.1981 131.039ZM47.4875 133.345C46.9274 132.976 46.3731 132.6 45.8248 132.215L46.3989 131.396Q47.2101 131.965 48.0377 132.51L47.4875 133.345ZM50.8764 135.441C50.3006 135.108 49.7302 134.766 49.1653 134.417L49.6913 133.566Q50.5273 134.083 51.3778 134.576L50.8764 135.441ZM54.3946 137.347C53.7979 137.046 53.2062 136.736 52.6198 136.418L53.0961 135.539Q53.9641 136.009 54.8454 136.455L54.3946 137.347ZM58.0346 139.056C57.4182 138.788 56.8066 138.511 56.1999 138.226L56.6248 137.321Q57.5226 137.743 58.4332 138.138L58.0346 139.056ZM61.7373 140.54C61.1155 140.311 60.4979 140.074 59.8848 139.828L60.2568 138.9Q61.1643 139.264 62.0828 139.602L61.7373 140.54ZM65.5184 141.811C64.8801 141.616 64.2457 141.413 63.6155 141.201L63.934 140.253Q64.8679 140.567 65.8097 140.854L65.5184 141.811ZM69.3949 142.87C68.7412 142.712 68.0913 142.544 67.4452 142.367L67.7089 141.403Q68.6661 141.664 69.6308 141.899L69.3949 142.87ZM73.3237 143.706C72.6681 143.586 72.0157 143.457 71.3667 143.319L71.5745 142.341Q72.5364 142.546 73.5038 142.723L73.3237 143.706ZM77.2401 144.31C76.5814 144.227 75.9256 144.135 75.2728 144.035L75.4252 143.047Q76.3931 143.196 77.3647 143.318L77.2401 144.31ZM81.2262 144.697C80.5564 144.651 79.8893 144.595 79.2249 144.531L79.3215 143.536Q80.306 143.631 81.2948 143.699L81.2262 144.697ZM85.2755 144.861C84.5957 144.852 83.9183 144.834 83.2433 144.807L83.2838 143.808Q84.2841 143.848 85.2877 143.861L85.2755 144.861ZM89.3476 144.796C88.6733 144.826 87.9965 144.846 87.3173 144.857L87.3014 143.857Q88.3035 143.841 89.3035 143.797L89.3476 144.796ZM93.3619 144.505C92.6983 144.572 92.0318 144.63 91.3627 144.678L91.2904 143.681Q92.2787 143.609 93.2616 143.51L93.3619 144.505ZM97.3094 143.995C96.6574 144.098 96.0024 144.192 95.3444 144.277L95.2162 143.286Q96.1879 143.16 97.1534 143.007L97.3094 143.995ZM101.219 143.264C100.568 143.405 99.9137 143.537 99.2561 143.66L99.0725 142.677Q100.043 142.495 101.007 142.287L101.219 143.264ZM105.134 142.298C104.489 142.477 103.84 142.647 103.188 142.808L102.948 141.837Q103.911 141.6 104.867 141.334L105.134 142.298ZM108.958 141.118C108.329 141.332 107.695 141.538 107.058 141.734L106.763 140.779Q107.704 140.489 108.636 140.172L108.958 141.118ZM112.682 139.732C112.07 139.98 111.454 140.219 110.833 140.451L110.484 139.513Q111.4 139.172 112.307 138.805L112.682 139.732ZM116.364 138.115C115.759 138.402 115.149 138.681 114.533 138.951L114.131 138.035Q115.039 137.636 115.936 137.211L116.364 138.115ZM119.936 136.294C119.351 136.614 118.761 136.926 118.166 137.229L117.712 136.338Q118.591 135.89 119.457 135.417L119.936 136.294ZM123.383 134.28C122.819 134.632 122.25 134.975 121.676 135.311L121.171 134.448Q122.02 133.951 122.853 133.432L123.383 134.28ZM126.717 132.065C126.17 132.451 125.617 132.83 125.059 133.201L124.505 132.368Q125.33 131.82 126.139 131.248L126.717 132.065ZM129.923 129.656C129.401 130.072 128.873 130.481 128.339 130.883L127.738 130.083Q128.528 129.49 129.3 128.874L129.923 129.656ZM132.978 127.073C132.482 127.517 131.979 127.955 131.47 128.386L130.824 127.622Q131.577 126.986 132.31 126.328L132.978 127.073ZM135.875 124.318C135.405 124.791 134.929 125.258 134.445 125.717L133.756 124.993Q134.471 124.313 135.165 123.613L135.875 124.318ZM138.613 121.392C138.172 121.893 137.722 122.387 137.266 122.875L136.536 122.191Q137.211 121.47 137.864 120.731L138.613 121.392ZM141.174 118.314C140.762 118.839 140.343 119.358 139.916 119.872L139.147 119.232Q139.778 118.473 140.386 117.697L141.174 118.314ZM143.548 115.089C143.168 115.638 142.78 116.182 142.385 116.719L141.579 116.126Q142.165 115.331 142.726 114.52L143.548 115.089ZM145.723 111.736C145.377 112.306 145.023 112.87 144.66 113.429L143.821 112.885Q144.357 112.058 144.868 111.217L145.723 111.736ZM147.697 108.254C147.385 108.845 147.065 109.43 146.736 110.011L145.866 109.517Q146.353 108.659 146.813 107.787L147.697 108.254ZM149.463 104.65C149.187 105.26 148.901 105.866 148.607 106.466L147.709 106.026Q148.144 105.138 148.552 104.237L149.463 104.65ZM150.999 100.968C150.762 101.588 150.516 102.204 150.261 102.816L149.338 102.431Q149.715 101.527 150.065 100.611L150.999 100.968ZM152.311 97.1948C152.111 97.8319 151.901 98.4649 151.683 99.0938L150.738 98.7654Q151.062 97.8349 151.356 96.8953L152.311 97.1948ZM153.396 93.3257C153.234 93.9782 153.063 94.6269 152.882 95.2719L151.919 95.0016Q152.187 94.0477 152.425 93.0852L153.396 93.3257ZM154.24 89.4138C154.12 90.0649 153.991 90.7128 153.852 91.3574L152.874 91.1469Q153.08 90.1918 153.256 89.2329L154.24 89.4138ZM154.84 85.4882C154.759 86.1485 154.669 86.8059 154.569 87.4602L153.58 87.3091Q153.728 86.3404 153.847 85.367L154.84 85.4882ZM155.205 81.4924C155.164 82.1638 155.113 82.8326 155.052 83.4987L154.056 83.4076Q154.146 82.4214 154.207 81.4316L155.205 81.4924ZM155.326 76.9024C155.327 77.0791 155.328 77.256 155.328 77.4331C155.328 78.1145 155.318 78.7936 155.297 79.4702L154.298 79.4398Q154.328 78.4378 154.328 77.437L154.326 76.9063L155.326 76.9024ZM155.171 72.8509C155.217 73.521 155.253 74.1937 155.279 74.869L154.28 74.9073Q154.242 73.9122 154.173 72.9196L155.171 72.8509ZM154.775 68.8638C154.861 69.5226 154.936 70.1843 155.003 70.8489L154.007 70.9478Q153.91 69.9674 153.783 68.9928L154.775 68.8638ZM154.145 64.9478C154.269 65.5942 154.384 66.2438 154.489 66.8965L153.501 67.0554Q153.347 66.094 153.163 65.1364L154.145 64.9478ZM153.268 61.0326C153.435 61.6831 153.592 62.3374 153.739 62.9952L152.763 63.2136Q152.546 62.2431 152.299 61.2808L153.268 61.0326ZM152.153 57.1755C152.358 57.8105 152.553 58.4495 152.739 59.0924L151.778 59.3702Q151.504 58.4223 151.201 57.4826L152.153 57.1755ZM150.812 53.4157C151.054 54.0339 151.287 54.6563 151.51 55.283L150.568 55.6189Q150.239 54.6946 149.881 53.7799L150.812 53.4157ZM149.246 49.7417C149.526 50.348 149.798 50.959 150.06 51.5746L149.14 51.9667Q148.753 51.0586 148.338 50.1615L149.246 49.7417ZM147.453 46.1529C147.769 46.741 148.077 47.3343 148.376 47.9325L147.481 48.3795Q147.04 47.4968 146.572 46.6267L147.453 46.1529ZM145.452 42.6869C145.802 43.2539 146.144 43.8263 146.478 44.4041L145.611 44.904Q145.119 44.0514 144.601 43.2125L145.452 42.6869ZM143.25 39.3502C143.634 39.8952 144.009 40.4459 144.376 41.0023L143.541 41.553Q142.999 40.7314 142.432 39.9254L143.25 39.3502ZM140.851 36.1442C141.267 36.6665 141.675 37.195 142.074 37.7294L141.274 38.3285Q140.683 37.539 140.069 36.7667L140.851 36.1442ZM138.267 33.0849C138.713 33.5821 139.151 34.0858 139.582 34.5957L138.818 35.241Q138.182 34.4874 137.523 33.7523L138.267 33.0849ZM135.507 30.1801C135.981 30.6509 136.449 31.1285 136.909 31.6127L136.184 32.3016Q135.504 31.5859 134.802 30.8898L135.507 30.1801ZM132.59 27.4483C133.089 27.8894 133.582 28.3376 134.068 28.7926L133.384 29.5225Q132.666 28.8496 131.928 28.1977L132.59 27.4483ZM129.515 24.8869C130.04 25.2993 130.559 25.7191 131.072 26.1461L130.432 26.9144Q129.674 26.2829 128.898 25.6734L129.515 24.8869ZM126.289 22.5015C126.839 22.884 127.383 23.2741 127.921 23.6717L127.326 24.4758Q126.531 23.8875 125.718 23.3224L126.289 22.5015ZM122.942 20.3136C123.509 20.6609 124.069 21.016 124.624 21.3788L124.077 22.2159Q123.256 21.6793 122.419 21.166L122.942 20.3136ZM119.479 18.3242C120.067 18.6398 120.65 18.9635 121.227 19.2951L120.729 20.1622Q119.875 19.6714 119.006 19.2053L119.479 18.3242ZM115.891 16.529C116.499 16.8116 117.103 17.1026 117.701 17.4019L117.253 18.2962Q116.368 17.8532 115.47 17.4359L115.891 16.529ZM112.204 14.9426C112.825 15.1888 113.441 15.4435 114.053 15.7066L113.658 16.6252Q112.752 16.2357 111.835 15.8722L112.204 14.9426ZM108.467 13.5827C109.098 13.7922 109.725 14.0104 110.348 14.2371L110.006 15.1769Q109.084 14.8411 108.152 14.5318L108.467 13.5827ZM104.631 12.4304C105.278 12.6047 105.921 12.788 106.561 12.9801L106.273 13.9378Q105.326 13.6533 104.371 13.3959L104.631 12.4304ZM100.704 11.4926C101.365 11.6306 102.024 11.7779 102.678 11.9342L102.446 12.9068Q101.476 12.6752 100.499 12.4715L100.704 11.4926ZM96.8006 10.7925C97.4542 10.8908 98.1047 10.9981 98.7521 11.1142L98.5756 12.0985Q97.6164 11.9265 96.6518 11.7814L96.8006 10.7925ZM92.8441 10.3105C93.5092 10.3726 94.1715 10.4439 94.831 10.5243L94.71 11.517Q93.7326 11.3979 92.751 11.3061L92.8441 10.3105ZM88.8215 10.0489C89.4971 10.0737 90.1702 10.1081 90.8406 10.1517L90.7757 11.1496Q89.7818 11.0849 88.7847 11.0482L88.8215 10.0489ZM86.7875 10.0027L86.7832 11.0027L86.164 11Q85.4642 11 84.7657 11.0137L84.7461 10.0139C85.2176 10.0046 85.6902 10 86.164 10C86.372 10 86.5799 10.0009 86.7875 10.0027Z">
</path>
<defs>
<linearGradient id="linear_border_16_3_0" x1="0" y1="77.43310546875" x2="172" y2="74.65413098399041" gradientUnits="userSpaceOnUse">
<stop offset="0" stop-color="#2AB2D4"  />
<stop offset="0.05104920543953052" stop-color="#000000" stop-opacity="0" />
<stop offset="0.948862580385748" stop-color="#2D476A" stop-opacity="0" />
<stop offset="1" stop-color="#2AB2D4"  />
</linearGradient>
<linearGradient id="linear_fill_16_4_0" x1="162.7989501953125" y1="72.48253293732212" x2="10.379175682213841" y2="75.4148391376955" gradientUnits="userSpaceOnUse">
<stop offset="0" stop-color="#166A80"  />
<stop offset="0.1488" stop-color="#166A80" stop-opacity="0" />
<stop offset="0.8571" stop-color="#20373D" stop-opacity="0" />
<stop offset="1" stop-color="#166A80"  />
</linearGradient>
<linearGradient id="linear_border_16_4_0" x1="9" y1="77" x2="162.7989501953125" y2="73.82676581718972" gradientUnits="userSpaceOnUse">
<stop offset="0" stop-color="#2AB2D4"  />
<stop offset="0.1525" stop-color="#000000" stop-opacity="0" />
<stop offset="0.8498" stop-color="#2D476A" stop-opacity="0" />
<stop offset="1" stop-color="#2AB2D4"  />
</linearGradient>
<linearGradient id="linear_border_16_5_0" x1="17" y1="77.43310546875" x2="155.3280029296875" y2="74.65413098399041" gradientUnits="userSpaceOnUse">
<stop offset="0" stop-color="#2AB2D4"  />
<stop offset="0.05104920543953052" stop-color="#000000" stop-opacity="0" />
<stop offset="0.948862580385748" stop-color="#2D476A" stop-opacity="0" />
<stop offset="1" stop-color="#2AB2D4"  />
</linearGradient>
</defs>
</svg>
